<svg width="1440" height="582" viewBox="0 0 1440 582" fill="none" xmlns="http://www.w3.org/2000/svg">
<path d="M1440 3H0V573H1440V3Z" fill="url(#paint0_linear_1_7)"/>
<path d="M700 545C702.209 545 704 543.209 704 541C704 538.791 702.209 537 700 537C697.791 537 696 538.791 696 541C696 543.209 697.791 545 700 545Z" fill="#5283FF"/>
<path d="M720 545C722.209 545 724 543.209 724 541C724 538.791 722.209 537 720 537C717.791 537 716 538.791 716 541C716 543.209 717.791 545 720 545Z" fill="#D1D6E3"/>
<path d="M740 545C742.209 545 744 543.209 744 541C744 538.791 742.209 537 740 537C737.791 537 736 538.791 736 541C736 543.209 737.791 545 740 545Z" fill="#D1D6E3"/>
<path d="M0 530.51C202.703 530.51 347.472 495.633 480.333 497.758C789.74 502.705 643.639 355.682 960.667 355.682C1305.86 355.682 1223.24 226 1441 226" stroke="#5F82FF" stroke-width="3"/>
<path d="M480.333 497.758C347.472 495.633 202.703 530.51 0 530.51V573H1441V226C1223.24 226 1305.86 355.682 960.667 355.682C643.639 355.682 789.74 502.705 480.333 497.758Z" fill="url(#paint1_linear_1_7)" fill-opacity="0.4"/>
<path d="M924.5 308V497" stroke="#D8E0F7"/>
<g filter="url(#filter0_d_1_7)">
<path d="M924.5 364C928.642 364 932 360.642 932 356.5C932 352.358 928.642 349 924.5 349C920.358 349 917 352.358 917 356.5C917 360.642 920.358 364 924.5 364Z" fill="white"/>
<path d="M924.5 363C928.09 363 931 360.09 931 356.5C931 352.91 928.09 350 924.5 350C920.91 350 918 352.91 918 356.5C918 360.09 920.91 363 924.5 363Z" stroke="#5E80FE" stroke-width="2"/>
</g>
<path d="M1332.5 108V425" stroke="#D8E0F7"/>
<g filter="url(#filter1_d_1_7)">
<path d="M1332.5 250C1336.64 250 1340 246.642 1340 242.5C1340 238.358 1336.64 235 1332.5 235C1328.36 235 1325 238.358 1325 242.5C1325 246.642 1328.36 250 1332.5 250Z" fill="white"/>
<path d="M1332.5 249C1336.09 249 1339 246.09 1339 242.5C1339 238.91 1336.09 236 1332.5 236C1328.91 236 1326 238.91 1326 242.5C1326 246.09 1328.91 249 1332.5 249Z" stroke="#5E80FE" stroke-width="2"/>
</g>
<path d="M515.5 486V545" stroke="#D8E0F7"/>
<path d="M107.5 370V560" stroke="#D8E0F7"/>
<g filter="url(#filter2_d_1_7)">
<path d="M107.5 535C111.642 535 115 531.642 115 527.5C115 523.358 111.642 520 107.5 520C103.358 520 100 523.358 100 527.5C100 531.642 103.358 535 107.5 535Z" fill="white"/>
<path d="M107.5 534C111.09 534 114 531.09 114 527.5C114 523.91 111.09 521 107.5 521C103.91 521 101 523.91 101 527.5C101 531.09 103.91 534 107.5 534Z" stroke="#5E80FE" stroke-width="2"/>
</g>
<g filter="url(#filter3_d_1_7)">
<path d="M264.72 401.48C258.247 401.48 253 406.83 253 413.429H276.441C276.441 406.83 271.194 401.48 264.72 401.48Z" fill="white"/>
</g>
<g filter="url(#filter4_d_1_7)">
<path d="M310.683 407.455C301.672 407.455 294.366 414.862 294.366 424H327C327 414.862 319.695 407.455 310.683 407.455Z" fill="white"/>
</g>
<g filter="url(#filter5_d_1_7)">
<path d="M286.093 399.182C272.386 399.182 261.273 410.293 261.273 424H310.913C310.913 410.293 299.801 399.182 286.093 399.182Z" fill="white"/>
</g>
<g filter="url(#filter6_d_1_7)">
<path d="M1205.01 497.459C1186.23 497.459 1171 512.924 1171 532H1239.02C1239.02 512.924 1223.79 497.459 1205.01 497.459Z" fill="white"/>
</g>
<g filter="url(#filter7_d_1_7)">
<path d="M1181.68 468C1168.6 468 1158 478.781 1158 492.081H1205.37C1205.37 478.781 1194.76 468 1181.68 468Z" fill="white"/>
</g>
<g filter="url(#filter8_d_1_7)">
<path d="M1136.73 480.189C1108.16 480.189 1085 503.386 1085 532H1188.47C1188.47 503.386 1165.31 480.189 1136.73 480.189Z" fill="white"/>
</g>
<g filter="url(#filter9_d_1_7)">
<path d="M1262.91 56C1241.42 56 1224 73.461 1224 95H1301.81C1301.81 73.461 1284.39 56 1262.91 56Z" fill="white"/>
</g>
<g filter="url(#filter10_d_1_7)">
<path d="M1279.5 89C1267.07 89 1257 99.297 1257 112H1302C1302 99.297 1291.93 89 1279.5 89Z" fill="white"/>
</g>
<g filter="url(#filter11_d_1_7)">
<path d="M275.5 95C263.074 95 253 105.297 253 118H298C298 105.297 287.926 95 275.5 95Z" fill="white"/>
</g>
<g filter="url(#filter12_d_1_7)">
<path d="M75 255C75 213.026 41.6452 179 0.5 179V255H75Z" fill="white"/>
</g>
<g filter="url(#filter13_d_1_7)">
<path d="M317.112 389C311.651 389 307.224 393.559 307.224 399.182H327C327 393.559 322.573 389 317.112 389Z" fill="white"/>
</g>
<g filter="url(#filter14_d_1_7)">
<path d="M1223.5 40C1214.94 40 1208 47.163 1208 56H1239C1239 47.163 1232.06 40 1223.5 40Z" fill="white"/>
</g>
<g filter="url(#filter15_d_1_7)">
<path d="M515.5 505C519.642 505 523 501.642 523 497.5C523 493.358 519.642 490 515.5 490C511.358 490 508 493.358 508 497.5C508 501.642 511.358 505 515.5 505Z" fill="white"/>
<path d="M515.5 504C519.09 504 522 501.09 522 497.5C522 493.91 519.09 491 515.5 491C511.91 491 509 493.91 509 497.5C509 501.09 511.91 504 515.5 504Z" stroke="#5E80FE" stroke-width="2"/>
</g>
<g filter="url(#filter16_d_1_7)">
<mask id="mask0_1_7" style="mask-type:alpha" maskUnits="userSpaceOnUse" x="470" y="408" width="92" height="68">
<path fill-rule="evenodd" clip-rule="evenodd" d="M562 411C562 409.343 560.657 408 559 408H473C471.343 408 470 409.343 470 411V468.26C470 469.917 471.343 471.26 473 471.26H509.669C510.665 471.26 511.596 471.754 512.154 472.579L513.515 474.591C514.705 476.35 517.295 476.35 518.485 474.591L519.846 472.579C520.404 471.754 521.335 471.26 522.331 471.26H559C560.657 471.26 562 469.917 562 468.26V411Z" fill="white"/>
</mask>
<g mask="url(#mask0_1_7)">
<path fill-rule="evenodd" clip-rule="evenodd" d="M562 411C562 409.343 560.657 408 559 408H473C471.343 408 470 409.343 470 411V468.26C470 469.917 471.343 471.26 473 471.26H509.669C510.665 471.26 511.596 471.754 512.154 472.579L513.515 474.591C514.705 476.35 517.295 476.35 518.485 474.591L519.846 472.579C520.404 471.754 521.335 471.26 522.331 471.26H559C560.657 471.26 562 469.917 562 468.26V411Z" fill="white"/>
<path d="M519.846 472.579L519.017 472.019L519.846 472.579ZM513.515 474.591L514.343 474.031L513.515 474.591ZM512.154 472.579L511.326 473.14L512.154 472.579ZM473 409H559V407H473V409ZM471 468.26V411H469V468.26H471ZM509.669 470.26H473V472.26H509.669V470.26ZM514.343 474.031L512.983 472.019L511.326 473.14L512.687 475.151L514.343 474.031ZM519.017 472.019L517.657 474.031L519.313 475.151L520.674 473.14L519.017 472.019ZM559 470.26H522.331V472.26H559V470.26ZM561 411V468.26H563V411H561ZM559 472.26C561.209 472.26 563 470.469 563 468.26H561C561 469.365 560.105 470.26 559 470.26V472.26ZM520.674 473.14C521.046 472.59 521.667 472.26 522.331 472.26V470.26C521.003 470.26 519.761 470.919 519.017 472.019L520.674 473.14ZM512.687 475.151C514.273 477.497 517.727 477.497 519.313 475.151L517.657 474.031C516.864 475.204 515.136 475.204 514.343 474.031L512.687 475.151ZM509.669 472.26C510.333 472.26 510.954 472.59 511.326 473.14L512.983 472.019C512.239 470.919 510.997 470.26 509.669 470.26V472.26ZM469 468.26C469 470.469 470.791 472.26 473 472.26V470.26C471.895 470.26 471 469.365 471 468.26H469ZM559 409C560.105 409 561 409.895 561 411H563C563 408.791 561.209 407 559 407V409ZM473 407C470.791 407 469 408.791 469 411H471C471 409.895 471.895 409 473 409V407Z" fill="#D8E0F7"/>
<path d="M499 441.25C499 431.723 506.668 424 516.128 424C517.871 424 519.554 424.262 521.139 424.75" stroke="#5F82FF" stroke-width="4" stroke-linecap="round" stroke-linejoin="round"/>
<path fill-rule="evenodd" clip-rule="evenodd" d="M512.442 444.962C514.477 447.013 517.778 447.013 519.814 444.962C521.849 442.912 530.276 428.5 529.532 427.75C528.787 427 514.477 435.487 512.442 437.538C510.406 439.588 510.406 442.912 512.442 444.962ZM516.128 442.75C516.95 442.75 517.617 442.078 517.617 441.25C517.617 440.422 516.95 439.75 516.128 439.75C515.305 439.75 514.638 440.422 514.638 441.25C514.638 442.078 515.305 442.75 516.128 442.75Z" fill="#5F82FF"/>
<path d="M501.234 451.75C502.057 451.75 502.723 451.078 502.723 450.25C502.723 449.422 502.057 448.75 501.234 448.75C500.411 448.75 499.745 449.422 499.745 450.25C499.745 451.078 500.411 451.75 501.234 451.75Z" fill="#5F82FF"/>
<path d="M507.191 457.75C508.014 457.75 508.68 457.078 508.68 456.25C508.68 455.422 508.014 454.75 507.191 454.75C506.368 454.75 505.702 455.422 505.702 456.25C505.702 457.078 506.368 457.75 507.191 457.75Z" fill="#5F82FF"/>
<path d="M516.128 460C516.951 460 517.617 459.328 517.617 458.5C517.617 457.672 516.951 457 516.128 457C515.305 457 514.639 457.672 514.639 458.5C514.639 459.328 515.305 460 516.128 460Z" fill="#5F82FF"/>
<path d="M525.064 457.75C525.887 457.75 526.553 457.078 526.553 456.25C526.553 455.422 525.887 454.75 525.064 454.75C524.241 454.75 523.575 455.422 523.575 456.25C523.575 457.078 524.241 457.75 525.064 457.75Z" fill="#5F82FF"/>
<path d="M530.277 451.75C531.1 451.75 531.766 451.078 531.766 450.25C531.766 449.422 531.1 448.75 530.277 448.75C529.454 448.75 528.788 449.422 528.788 450.25C528.788 451.078 529.454 451.75 530.277 451.75Z" fill="#5F82FF"/>
<path d="M532.511 442.75C533.334 442.75 534 442.078 534 441.25C534 440.422 533.334 439.75 532.511 439.75C531.688 439.75 531.022 440.422 531.022 441.25C531.022 442.078 531.688 442.75 532.511 442.75Z" fill="#5F82FF"/>
</g>
</g>
<defs>
<filter id="filter0_d_1_7" x="902" y="334" width="45" height="45" filterUnits="userSpaceOnUse" color-interpolation-filters="sRGB">
<feFlood flood-opacity="0" result="BackgroundImageFix"/>
<feColorMatrix in="SourceAlpha" type="matrix" values="0 0 0 0 0 0 0 0 0 0 0 0 0 0 0 0 0 0 127 0" result="hardAlpha"/>
<feOffset/>
<feGaussianBlur stdDeviation="7.5"/>
<feColorMatrix type="matrix" values="0 0 0 0 0.323144 0 0 0 0 0.512664 0 0 0 0 1 0 0 0 0.25 0"/>
<feBlend mode="normal" in2="BackgroundImageFix" result="effect1_dropShadow_1_7"/>
<feBlend mode="normal" in="SourceGraphic" in2="effect1_dropShadow_1_7" result="shape"/>
</filter>
<filter id="filter1_d_1_7" x="1310" y="220" width="45" height="45" filterUnits="userSpaceOnUse" color-interpolation-filters="sRGB">
<feFlood flood-opacity="0" result="BackgroundImageFix"/>
<feColorMatrix in="SourceAlpha" type="matrix" values="0 0 0 0 0 0 0 0 0 0 0 0 0 0 0 0 0 0 127 0" result="hardAlpha"/>
<feOffset/>
<feGaussianBlur stdDeviation="7.5"/>
<feColorMatrix type="matrix" values="0 0 0 0 0.323144 0 0 0 0 0.512664 0 0 0 0 1 0 0 0 0.25 0"/>
<feBlend mode="normal" in2="BackgroundImageFix" result="effect1_dropShadow_1_7"/>
<feBlend mode="normal" in="SourceGraphic" in2="effect1_dropShadow_1_7" result="shape"/>
</filter>
<filter id="filter2_d_1_7" x="85" y="505" width="45" height="45" filterUnits="userSpaceOnUse" color-interpolation-filters="sRGB">
<feFlood flood-opacity="0" result="BackgroundImageFix"/>
<feColorMatrix in="SourceAlpha" type="matrix" values="0 0 0 0 0 0 0 0 0 0 0 0 0 0 0 0 0 0 127 0" result="hardAlpha"/>
<feOffset/>
<feGaussianBlur stdDeviation="7.5"/>
<feColorMatrix type="matrix" values="0 0 0 0 0.323144 0 0 0 0 0.512664 0 0 0 0 1 0 0 0 0.25 0"/>
<feBlend mode="normal" in2="BackgroundImageFix" result="effect1_dropShadow_1_7"/>
<feBlend mode="normal" in="SourceGraphic" in2="effect1_dropShadow_1_7" result="shape"/>
</filter>
<filter id="filter3_d_1_7" x="208" y="361.48" width="113.441" height="101.949" filterUnits="userSpaceOnUse" color-interpolation-filters="sRGB">
<feFlood flood-opacity="0" result="BackgroundImageFix"/>
<feColorMatrix in="SourceAlpha" type="matrix" values="0 0 0 0 0 0 0 0 0 0 0 0 0 0 0 0 0 0 127 0" result="hardAlpha"/>
<feOffset dy="5"/>
<feGaussianBlur stdDeviation="22.5"/>
<feColorMatrix type="matrix" values="0 0 0 0 0.593724 0 0 0 0 0.684469 0 0 0 0 0.888646 0 0 0 0.1 0"/>
<feBlend mode="normal" in2="BackgroundImageFix" result="effect1_dropShadow_1_7"/>
<feBlend mode="normal" in="SourceGraphic" in2="effect1_dropShadow_1_7" result="shape"/>
</filter>
<filter id="filter4_d_1_7" x="249.366" y="367.455" width="122.634" height="106.545" filterUnits="userSpaceOnUse" color-interpolation-filters="sRGB">
<feFlood flood-opacity="0" result="BackgroundImageFix"/>
<feColorMatrix in="SourceAlpha" type="matrix" values="0 0 0 0 0 0 0 0 0 0 0 0 0 0 0 0 0 0 127 0" result="hardAlpha"/>
<feOffset dy="5"/>
<feGaussianBlur stdDeviation="22.5"/>
<feColorMatrix type="matrix" values="0 0 0 0 0.593724 0 0 0 0 0.684469 0 0 0 0 0.888646 0 0 0 0.1 0"/>
<feBlend mode="normal" in2="BackgroundImageFix" result="effect1_dropShadow_1_7"/>
<feBlend mode="normal" in="SourceGraphic" in2="effect1_dropShadow_1_7" result="shape"/>
</filter>
<filter id="filter5_d_1_7" x="216.273" y="359.182" width="139.64" height="114.818" filterUnits="userSpaceOnUse" color-interpolation-filters="sRGB">
<feFlood flood-opacity="0" result="BackgroundImageFix"/>
<feColorMatrix in="SourceAlpha" type="matrix" values="0 0 0 0 0 0 0 0 0 0 0 0 0 0 0 0 0 0 127 0" result="hardAlpha"/>
<feOffset dy="5"/>
<feGaussianBlur stdDeviation="22.5"/>
<feColorMatrix type="matrix" values="0 0 0 0 0.593724 0 0 0 0 0.684469 0 0 0 0 0.888646 0 0 0 0.1 0"/>
<feBlend mode="normal" in2="BackgroundImageFix" result="effect1_dropShadow_1_7"/>
<feBlend mode="normal" in="SourceGraphic" in2="effect1_dropShadow_1_7" result="shape"/>
</filter>
<filter id="filter6_d_1_7" x="1126" y="457.459" width="158.02" height="124.541" filterUnits="userSpaceOnUse" color-interpolation-filters="sRGB">
<feFlood flood-opacity="0" result="BackgroundImageFix"/>
<feColorMatrix in="SourceAlpha" type="matrix" values="0 0 0 0 0 0 0 0 0 0 0 0 0 0 0 0 0 0 127 0" result="hardAlpha"/>
<feOffset dy="5"/>
<feGaussianBlur stdDeviation="22.5"/>
<feColorMatrix type="matrix" values="0 0 0 0 0.593724 0 0 0 0 0.684469 0 0 0 0 0.888646 0 0 0 0.1 0"/>
<feBlend mode="normal" in2="BackgroundImageFix" result="effect1_dropShadow_1_7"/>
<feBlend mode="normal" in="SourceGraphic" in2="effect1_dropShadow_1_7" result="shape"/>
</filter>
<filter id="filter7_d_1_7" x="1113" y="428" width="137.37" height="114.081" filterUnits="userSpaceOnUse" color-interpolation-filters="sRGB">
<feFlood flood-opacity="0" result="BackgroundImageFix"/>
<feColorMatrix in="SourceAlpha" type="matrix" values="0 0 0 0 0 0 0 0 0 0 0 0 0 0 0 0 0 0 127 0" result="hardAlpha"/>
<feOffset dy="5"/>
<feGaussianBlur stdDeviation="22.5"/>
<feColorMatrix type="matrix" values="0 0 0 0 0.593724 0 0 0 0 0.684469 0 0 0 0 0.888646 0 0 0 0.1 0"/>
<feBlend mode="normal" in2="BackgroundImageFix" result="effect1_dropShadow_1_7"/>
<feBlend mode="normal" in="SourceGraphic" in2="effect1_dropShadow_1_7" result="shape"/>
</filter>
<filter id="filter8_d_1_7" x="1040" y="440.189" width="193.47" height="141.811" filterUnits="userSpaceOnUse" color-interpolation-filters="sRGB">
<feFlood flood-opacity="0" result="BackgroundImageFix"/>
<feColorMatrix in="SourceAlpha" type="matrix" values="0 0 0 0 0 0 0 0 0 0 0 0 0 0 0 0 0 0 127 0" result="hardAlpha"/>
<feOffset dy="5"/>
<feGaussianBlur stdDeviation="22.5"/>
<feColorMatrix type="matrix" values="0 0 0 0 0.593724 0 0 0 0 0.684469 0 0 0 0 0.888646 0 0 0 0.1 0"/>
<feBlend mode="normal" in2="BackgroundImageFix" result="effect1_dropShadow_1_7"/>
<feBlend mode="normal" in="SourceGraphic" in2="effect1_dropShadow_1_7" result="shape"/>
</filter>
<filter id="filter9_d_1_7" x="1179" y="16" width="167.81" height="129" filterUnits="userSpaceOnUse" color-interpolation-filters="sRGB">
<feFlood flood-opacity="0" result="BackgroundImageFix"/>
<feColorMatrix in="SourceAlpha" type="matrix" values="0 0 0 0 0 0 0 0 0 0 0 0 0 0 0 0 0 0 127 0" result="hardAlpha"/>
<feOffset dy="5"/>
<feGaussianBlur stdDeviation="22.5"/>
<feColorMatrix type="matrix" values="0 0 0 0 0.593724 0 0 0 0 0.684469 0 0 0 0 0.888646 0 0 0 0.1 0"/>
<feBlend mode="normal" in2="BackgroundImageFix" result="effect1_dropShadow_1_7"/>
<feBlend mode="normal" in="SourceGraphic" in2="effect1_dropShadow_1_7" result="shape"/>
</filter>
<filter id="filter10_d_1_7" x="1212" y="49" width="135" height="113" filterUnits="userSpaceOnUse" color-interpolation-filters="sRGB">
<feFlood flood-opacity="0" result="BackgroundImageFix"/>
<feColorMatrix in="SourceAlpha" type="matrix" values="0 0 0 0 0 0 0 0 0 0 0 0 0 0 0 0 0 0 127 0" result="hardAlpha"/>
<feOffset dy="5"/>
<feGaussianBlur stdDeviation="22.5"/>
<feColorMatrix type="matrix" values="0 0 0 0 0.593724 0 0 0 0 0.684469 0 0 0 0 0.888646 0 0 0 0.1 0"/>
<feBlend mode="normal" in2="BackgroundImageFix" result="effect1_dropShadow_1_7"/>
<feBlend mode="normal" in="SourceGraphic" in2="effect1_dropShadow_1_7" result="shape"/>
</filter>
<filter id="filter11_d_1_7" x="208" y="55" width="135" height="113" filterUnits="userSpaceOnUse" color-interpolation-filters="sRGB">
<feFlood flood-opacity="0" result="BackgroundImageFix"/>
<feColorMatrix in="SourceAlpha" type="matrix" values="0 0 0 0 0 0 0 0 0 0 0 0 0 0 0 0 0 0 127 0" result="hardAlpha"/>
<feOffset dy="5"/>
<feGaussianBlur stdDeviation="22.5"/>
<feColorMatrix type="matrix" values="0 0 0 0 0.593724 0 0 0 0 0.684469 0 0 0 0 0.888646 0 0 0 0.1 0"/>
<feBlend mode="normal" in2="BackgroundImageFix" result="effect1_dropShadow_1_7"/>
<feBlend mode="normal" in="SourceGraphic" in2="effect1_dropShadow_1_7" result="shape"/>
</filter>
<filter id="filter12_d_1_7" x="-44.5" y="139" width="164.5" height="166" filterUnits="userSpaceOnUse" color-interpolation-filters="sRGB">
<feFlood flood-opacity="0" result="BackgroundImageFix"/>
<feColorMatrix in="SourceAlpha" type="matrix" values="0 0 0 0 0 0 0 0 0 0 0 0 0 0 0 0 0 0 127 0" result="hardAlpha"/>
<feOffset dy="5"/>
<feGaussianBlur stdDeviation="22.5"/>
<feColorMatrix type="matrix" values="0 0 0 0 0.593724 0 0 0 0 0.684469 0 0 0 0 0.888646 0 0 0 0.1 0"/>
<feBlend mode="normal" in2="BackgroundImageFix" result="effect1_dropShadow_1_7"/>
<feBlend mode="normal" in="SourceGraphic" in2="effect1_dropShadow_1_7" result="shape"/>
</filter>
<filter id="filter13_d_1_7" x="262.224" y="349" width="109.776" height="100.182" filterUnits="userSpaceOnUse" color-interpolation-filters="sRGB">
<feFlood flood-opacity="0" result="BackgroundImageFix"/>
<feColorMatrix in="SourceAlpha" type="matrix" values="0 0 0 0 0 0 0 0 0 0 0 0 0 0 0 0 0 0 127 0" result="hardAlpha"/>
<feOffset dy="5"/>
<feGaussianBlur stdDeviation="22.5"/>
<feColorMatrix type="matrix" values="0 0 0 0 0.593724 0 0 0 0 0.684469 0 0 0 0 0.888646 0 0 0 0.1 0"/>
<feBlend mode="normal" in2="BackgroundImageFix" result="effect1_dropShadow_1_7"/>
<feBlend mode="normal" in="SourceGraphic" in2="effect1_dropShadow_1_7" result="shape"/>
</filter>
<filter id="filter14_d_1_7" x="1163" y="0" width="121" height="106" filterUnits="userSpaceOnUse" color-interpolation-filters="sRGB">
<feFlood flood-opacity="0" result="BackgroundImageFix"/>
<feColorMatrix in="SourceAlpha" type="matrix" values="0 0 0 0 0 0 0 0 0 0 0 0 0 0 0 0 0 0 127 0" result="hardAlpha"/>
<feOffset dy="5"/>
<feGaussianBlur stdDeviation="22.5"/>
<feColorMatrix type="matrix" values="0 0 0 0 0.593724 0 0 0 0 0.684469 0 0 0 0 0.888646 0 0 0 0.1 0"/>
<feBlend mode="normal" in2="BackgroundImageFix" result="effect1_dropShadow_1_7"/>
<feBlend mode="normal" in="SourceGraphic" in2="effect1_dropShadow_1_7" result="shape"/>
</filter>
<filter id="filter15_d_1_7" x="493" y="475" width="45" height="45" filterUnits="userSpaceOnUse" color-interpolation-filters="sRGB">
<feFlood flood-opacity="0" result="BackgroundImageFix"/>
<feColorMatrix in="SourceAlpha" type="matrix" values="0 0 0 0 0 0 0 0 0 0 0 0 0 0 0 0 0 0 127 0" result="hardAlpha"/>
<feOffset/>
<feGaussianBlur stdDeviation="7.5"/>
<feColorMatrix type="matrix" values="0 0 0 0 0.323144 0 0 0 0 0.512664 0 0 0 0 1 0 0 0 0.25 0"/>
<feBlend mode="normal" in2="BackgroundImageFix" result="effect1_dropShadow_1_7"/>
<feBlend mode="normal" in="SourceGraphic" in2="effect1_dropShadow_1_7" result="shape"/>
</filter>
<filter id="filter16_d_1_7" x="440" y="388" width="152" height="127.91" filterUnits="userSpaceOnUse" color-interpolation-filters="sRGB">
<feFlood flood-opacity="0" result="BackgroundImageFix"/>
<feColorMatrix in="SourceAlpha" type="matrix" values="0 0 0 0 0 0 0 0 0 0 0 0 0 0 0 0 0 0 127 0" result="hardAlpha"/>
<feOffset dy="10"/>
<feGaussianBlur stdDeviation="15"/>
<feColorMatrix type="matrix" values="0 0 0 0 0.894415 0 0 0 0 0.918495 0 0 0 0 0.984716 0 0 0 1 0"/>
<feBlend mode="normal" in2="BackgroundImageFix" result="effect1_dropShadow_1_7"/>
<feBlend mode="normal" in="SourceGraphic" in2="effect1_dropShadow_1_7" result="shape"/>
</filter>
<linearGradient id="paint0_linear_1_7" x1="720" y1="3" x2="720" y2="573" gradientUnits="userSpaceOnUse">
<stop stop-color="#F4F7FF"/>
<stop offset="1" stop-color="#F1F5FF"/>
</linearGradient>
<linearGradient id="paint1_linear_1_7" x1="278.466" y1="573.443" x2="278.466" y2="118.005" gradientUnits="userSpaceOnUse">
<stop stop-color="#4B71FF" stop-opacity="0"/>
<stop offset="1" stop-color="#6B89F8"/>
</linearGradient>
</defs>
</svg>
